<?xml version="1.0" encoding="UTF-8"?><svg id="Capa_1" xmlns="http://www.w3.org/2000/svg" width="20" height="20" viewBox="0 0 20 20"><defs><style>.cls-1{fill:#fff;}.cls-2{fill:#e50000;}</style></defs><rect class="cls-2" width="20" height="20" rx="3" ry="3"/><path class="cls-1" d="m5.1,7.9h9.8c0,.4,0,.7,0,1.1,0,1.3-.1,2.5-.2,3.8,0,1.1-.1,2.2-.2,3.3,0,.6-.6,1.2-1.2,1.2-.8,0-1.7,0-2.5,0-1.3,0-2.6,0-3.9,0-.8,0-1.3-.5-1.4-1.3,0-1.8-.2-3.6-.3-5.4,0-.8,0-1.6-.1-2.4,0-.1,0-.2,0-.4Zm2.3,4.7c0,.3,0,.6,0,1,0,.7,0,1.3,0,2,0,.2.1.3.3.3.1,0,.3-.1.3-.3,0,0,0-.2,0-.2,0-1.1-.1-2.1-.2-3.2,0-.8,0-1.6-.1-2.4,0-.2-.1-.3-.3-.3-.2,0-.3.1-.2.3,0,1,0,1.9.1,2.9Zm5.2,0s0,0,0,0c0-1,0-1.9.1-2.9,0-.2,0-.3-.2-.3-.1,0-.3,0-.3.3,0,.2,0,.5,0,.7,0,1.7-.2,3.4-.2,5.1,0,.2,0,.3.3.3.2,0,.3-.1.3-.3,0-1,0-1.9.1-2.9Zm-2.3,0c0-1,0-1.9,0-2.9,0-.2,0-.3-.3-.3-.2,0-.3.1-.3.3,0,0,0,0,0,0,0,1.9,0,3.7,0,5.6,0,0,0,.1,0,.2,0,.1.1.2.3.2.1,0,.2,0,.2-.2,0,0,0-.1,0-.2,0-.9,0-1.9,0-2.8Z"/><path class="cls-1" d="m10,4.5c1.6,0,3.2,0,4.8,0,.6,0,.9.3.9.9,0,.4,0,.7,0,1.1,0,.5-.3.8-.8.8-1.9,0-3.9,0-5.8,0-1.3,0-2.6,0-3.9,0-.5,0-.9-.4-.9-.9,0-.3,0-.7,0-1,0-.5.3-.9.9-.9,1.6,0,3.2,0,4.8,0Z"/><path class="cls-1" d="m12.1,4h-.5c0,0,0-.1,0-.2,0-.3-.2-.5-.5-.5-.7,0-1.4,0-2.2,0-.4,0-.6.2-.6.6,0,0,0,0,0,.2h-.5c-.1-.3,0-.8.4-1,.2-.1.4-.2.6-.2.8,0,1.5,0,2.3,0,.6,0,1.1.6,1,1.2,0,0,0,0,0,0Z"/></svg>