<?xml version="1.0" encoding="utf-8"?>
<!-- Generator: Adobe Illustrator 27.5.0, SVG Export Plug-In . SVG Version: 6.00 Build 0)  -->
<svg version="1.1" id="Capa_1" xmlns="http://www.w3.org/2000/svg" xmlns:xlink="http://www.w3.org/1999/xlink" x="0px" y="0px"
	 viewBox="0 0 40 40" style="enable-background:new 0 0 40 40;" xml:space="preserve">
<style type="text/css">
	.st0{fill:#FFFFFF;}
</style>
<path class="st0" d="M0,20.1C0,20.1,0,20,0,20c0,0,0.1-0.1,0.1-0.1c0.8-1.4,1.6-2.8,2.4-4.2c0.1-0.1,0.1-0.3,0.1-0.5
	c0-1.5,0-3,0-4.5c0-0.4,0.1-0.6,0.4-0.8C4.4,9,5.7,8.3,7,7.5C7.2,7.4,7.4,7.2,7.5,7C8.3,5.7,9,4.4,9.8,3.1c0.2-0.3,0.4-0.4,0.8-0.4
	c1.5,0,3,0,4.5,0c0.2,0,0.4-0.1,0.6-0.2c1.1-0.6,2.2-1.2,3.2-1.9c0.3-0.2,0.7-0.4,1-0.6c0.1,0,0.1,0,0.2,0c0,0,0.1,0.1,0.1,0.1
	c1.4,0.8,2.8,1.6,4.2,2.4c0.1,0.1,0.3,0.1,0.5,0.1c1.6,0,3.1,0,4.7,0c0.3,0,0.4,0.1,0.6,0.3c0.8,1.3,1.5,2.7,2.3,4
	c0.1,0.2,0.3,0.4,0.5,0.5c1.3,0.8,2.7,1.6,4,2.3c0.2,0.1,0.3,0.3,0.3,0.5c0,1.5,0,3.1,0,4.6c0,0.2,0.1,0.5,0.2,0.7
	c0.8,1.4,1.5,2.7,2.3,4c0.1,0.2,0.1,0.4,0,0.6c-0.8,1.3-1.6,2.7-2.3,4c-0.1,0.2-0.2,0.5-0.2,0.7c0,1.5,0,3.1,0,4.6
	c0,0.3-0.1,0.5-0.4,0.7c-1.3,0.8-2.7,1.5-4,2.3c-0.2,0.1-0.3,0.3-0.4,0.4c-0.8,1.3-1.6,2.7-2.3,4c-0.1,0.3-0.3,0.4-0.6,0.4
	c-1.5,0-3.1,0-4.6,0c-0.3,0-0.5,0.1-0.8,0.2c-1.3,0.8-2.7,1.5-4,2.3c-0.2,0.1-0.4,0.1-0.6,0c-1.3-0.8-2.7-1.6-4-2.3
	c-0.2-0.1-0.5-0.2-0.8-0.2c-1.5,0-3.1,0-4.6,0c-0.3,0-0.4-0.1-0.5-0.3c-0.8-1.3-1.5-2.7-2.3-4c-0.1-0.2-0.3-0.4-0.5-0.5
	c-1.3-0.8-2.7-1.6-4-2.3c-0.3-0.1-0.3-0.3-0.3-0.6c0-1.6,0-3.1,0-4.7c0-0.2-0.1-0.4-0.2-0.6c-0.6-1.1-1.2-2.2-1.9-3.3
	C0.4,20.8,0.2,20.4,0,20.1z M16.9,21.2c-1-1.1-2-2-3-3c-0.9-0.9-2-0.9-2.8,0c-0.5,0.4-0.9,0.9-1.4,1.4c-0.9,0.9-0.9,2,0,2.8
	c1.9,1.9,3.8,3.8,5.7,5.7c0.9,0.8,2,0.8,2.9,0c4-4,8-8,12-12c0.9-0.9,0.8-1.9,0-2.8c-0.4-0.4-0.8-0.8-1.2-1.2C28,11,27,11,26,12.1
	c-2.9,2.9-5.8,5.8-8.7,8.7C17.1,20.9,17,21.1,16.9,21.2z"/>
</svg>
