<?xml version="1.0" encoding="utf-8"?>
<!-- Generator: Adobe Illustrator 27.7.0, SVG Export Plug-In . SVG Version: 6.00 Build 0)  -->
<svg version="1.1" id="Capa_1" xmlns="http://www.w3.org/2000/svg" xmlns:xlink="http://www.w3.org/1999/xlink" x="0px" y="0px"
	 viewBox="0 0 27.3 35" style="enable-background:new 0 0 27.3 35;" xml:space="preserve">
<style type="text/css">
	.st0{fill:#EA8227;}
</style>
<path class="st0" d="M6.3,35c-0.5-0.2-1.1-0.4-1.4-0.9c-0.2-0.3-0.4-0.8-0.5-1.2c-0.2-2.2-0.4-4.4-0.6-6.6c-0.2-2.4-0.4-4.8-0.6-7.2
	C3.1,17,3,14.7,2.8,12.5c-0.1-0.7,0.3-1.1,1-1.1c3.3,0,6.5,0,9.8,0c3.2,0,6.4,0,9.7,0c1,0,1.3,0.4,1.2,1.3c-0.2,2.4-0.4,4.8-0.6,7.1
	c-0.2,2.4-0.4,4.8-0.6,7.2c-0.1,1.7-0.3,3.5-0.4,5.2c-0.1,1.3-0.6,2.2-1.9,2.6C16.1,35,11.2,35,6.3,35z M12.6,23.3
	c0,1.6,0,3.2,0,4.8c0,1.2,0,2.4,0,3.6c0,0.5,0.3,0.9,0.7,1c0.7,0.3,1.4-0.3,1.4-1.2c0-5.5,0-11,0-16.5c0-0.1,0-0.3-0.1-0.4
	c-0.1-0.4-0.5-0.7-0.9-0.8c-0.5,0-0.9,0.2-1,0.7c-0.1,0.2-0.1,0.4-0.1,0.6C12.6,17.9,12.6,20.6,12.6,23.3z M6.4,15.3L6.4,15.3
	c0.1,1.2,0.2,2.4,0.2,3.6c0.3,4.3,0.5,8.5,0.8,12.8c0,0.7,0.5,1.2,1.1,1.1c0.6,0,1-0.6,1-1.3c0-0.5-0.1-1-0.1-1.6
	C9.1,25.3,8.8,20.6,8.6,16c0-0.5,0-1-0.1-1.4c-0.1-0.5-0.5-0.8-1-0.8s-0.9,0.3-1,0.8C6.4,14.8,6.4,15.1,6.4,15.3z M20.9,15.5
	L20.9,15.5c0-0.1,0-0.3,0-0.4c0-0.6-0.4-1.1-1-1.2c-0.6,0-1.1,0.4-1.1,1c-0.1,0.8-0.1,1.5-0.1,2.3c-0.3,4.8-0.6,9.6-0.9,14.4
	c0,0.7,0.4,1.2,1,1.2s1.1-0.4,1.1-1.1c0.1-2.4,0.3-4.8,0.4-7.2C20.5,21.5,20.7,18.5,20.9,15.5z"/>
<path class="st0" d="M13.6,9.4c-4.2,0-8.3,0-12.5,0c-0.3,0-0.5-0.1-0.7-0.2C0.1,9-0.1,8.6,0,8.3c0.2-0.7,0.5-1.5,0.7-2.2
	C1,5.5,1.5,5.2,2.1,5.2c0.1,0,0.2,0,0.3,0c7.5,0,15,0,22.5,0c1,0,1.4,0.3,1.7,1.2C26.8,7,27,7.5,27.2,8c0.3,0.8-0.1,1.3-1,1.3
	C22,9.4,17.8,9.4,13.6,9.4z"/>
<path class="st0" d="M18.7,3.1c-0.7,0-1.4,0-2.1,0c0-0.3,0-0.6,0-0.9c-2,0-3.9,0-5.9,0c0,0.3,0,0.6,0,0.9c-0.7,0-1.4,0-2.1,0
	c-0.2-1.5,0.1-2.6,1.4-3C10.2,0,10.5,0,10.7,0c1.9,0,3.9,0,5.8,0c1.3,0,2.1,0.8,2.1,2.1C18.7,2.4,18.7,2.7,18.7,3.1z"/>
<path class="st0" d="M13.6,9.4c-4.2,0-8.3,0-12.5,0c-0.3,0-0.5-0.1-0.7-0.2C0.1,9-0.1,8.6,0,8.3c0.2-0.7,0.5-1.5,0.7-2.2
	C1,5.5,1.5,5.2,2.1,5.2c0.1,0,0.2,0,0.3,0c7.5,0,15,0,22.5,0c1,0,1.4,0.3,1.7,1.2C26.8,7,27,7.5,27.2,8c0.3,0.8-0.1,1.3-1,1.3
	C22,9.4,17.8,9.4,13.6,9.4z"/>
<path class="st0" d="M18.7,3.1c-0.7,0-1.4,0-2.1,0c0-0.3,0-0.6,0-0.9c-2,0-3.9,0-5.9,0c0,0.3,0,0.6,0,0.9c-0.7,0-1.4,0-2.1,0
	c-0.2-1.5,0.1-2.6,1.4-3C10.2,0,10.5,0,10.7,0c1.9,0,3.9,0,5.8,0c1.3,0,2.1,0.8,2.1,2.1C18.7,2.4,18.7,2.7,18.7,3.1z"/>
</svg>
