<?xml version="1.0" encoding="UTF-8"?><svg id="Capa_1" xmlns="http://www.w3.org/2000/svg" width="20" height="19.2" viewBox="0 0 20 19.2"><defs><style>.cls-1{fill:#e50000;}</style></defs><path class="cls-1" d="m0,4.2v-.4c0-.4.2-.8.5-1,.8-.8,1.7-1.6,2.5-2.4C3.4,0,3.9,0,4.4,0c.5,0,.9.3,1.2.6,1.4,1.5,2.8,2.9,4.2,4.4,0,0,0,.1.2.2,0,0,.1-.2.2-.2,1.4-1.5,2.9-2.9,4.3-4.4.8-.8,1.8-.8,2.6,0,.8.7,1.5,1.5,2.3,2.3.2.2.4.4.5.7.3.8,0,1.4-.5,2-1.5,1.4-3.1,2.9-4.6,4.3,0,0,0,0-.2.1,0,0,.1.1.2.2,1.3,1.4,2.6,2.7,3.9,4.1.7.7.8,1.7.1,2.5-.6.7-1.2,1.3-1.8,1.9-.2.2-.4.3-.6.4-.7.3-1.4.1-1.9-.4-1.5-1.4-2.9-2.8-4.4-4.2,0,0-.1,0-.2-.1,0,0-.1,0-.2.1-1.5,1.4-3,2.8-4.5,4.2-.8.7-1.8.7-2.5,0-.6-.6-1.2-1.3-1.8-1.9-.2-.3-.4-.6-.4-1,0-.6.1-1.1.6-1.5,1.4-1.4,2.7-2.8,4.1-4.2,0,0,0-.1.2-.2,0,0-.1,0-.2-.1-1.4-1.4-2.9-2.8-4.3-4.1-.4-.4-.8-.8-.9-1.5Z"/></svg>