<?xml version="1.0" encoding="utf-8"?>
<!-- Generator: Adobe Illustrator 27.7.0, SVG Export Plug-In . SVG Version: 6.00 Build 0)  -->
<svg version="1.1" id="Capa_1" xmlns="http://www.w3.org/2000/svg" xmlns:xlink="http://www.w3.org/1999/xlink" x="0px" y="0px"
	 viewBox="0 0 28.8 28.8" style="enable-background:new 0 0 28.8 28.8;" xml:space="preserve">
<style type="text/css">
	.st0{fill:#FFFFFF;}
</style>
<path class="st0" d="M27.7,17.8H1.1c-0.6,0-1.1-0.5-1.1-1.1v-4.6C0,11.5,0.5,11,1.1,11h26.6c0.6,0,1.1,0.5,1.1,1.1v4.6
	C28.8,17.3,28.3,17.8,27.7,17.8z"/>
<path class="st0" d="M11,27.7V1.1C11,0.5,11.5,0,12.1,0h4.6c0.6,0,1.1,0.5,1.1,1.1v26.6c0,0.6-0.5,1.1-1.1,1.1h-4.6
	C11.5,28.8,11,28.3,11,27.7z"/>
</svg>
